<?xml version="1.0" encoding="UTF-8" standalone="no"?>
<svg version="1.1" viewBox="0 0 42.8 44" xml:space="preserve" xmlns="http://www.w3.org/2000/svg" xmlns:svg="http://www.w3.org/2000/svg">
   <!-- stile originale style="display:inline;fill:#fafafa;fill-opacity:1;stroke:none;stroke-width:1.00013;stroke-linecap:round;stroke-dasharray:none;stroke-opacity:1" -->
   <path fill="currentColor" stroke="currentColor" d="m 60.581316,38.150641 c -8.597075,-0.04979 -16.870733,5.525641 -20.037021,13.519073 -3.220491,7.631852 -1.446684,17.00855 4.305164,22.96139 2.956576,2.860164 6.522295,5.215315 10.571964,6.184118 7.917512,2.125424 16.861556,-0.810103 22.005892,-7.186641 3.201085,-3.859828 4.295705,-8.980549 4.220931,-13.998112 l -3.087666,-0.01912 c -2.239528,-0.235103 -4.727146,0.758674 -5.351612,3.134692 -1.29362,5.825898 -7.07386,10.213794 -13.041064,9.820072 -3.377124,-0.08897 -6.469246,-1.766975 -8.874911,-4.050915 -4.280596,-4.375163 -4.571918,-11.88605 -0.681612,-16.604155 1.834375,-2.370581 4.539561,-3.955916 7.433138,-4.650878 2.211183,-0.816963 2.954712,-3.32036 2.74867,-5.472535 l 0.0031,-3.636989 z m 3.963582,0.03101 c -1.822529,0.331341 -2.140074,3.02627 -0.785999,4.073653 1.133808,1.133649 2.267535,2.267176 3.401343,3.400826 -3.272725,3.294613 -6.591902,6.545687 -9.835059,9.868132 -1.651139,1.891887 -1.494128,5.04642 0.435116,6.68848 1.834348,2.033036 5.319503,1.844726 7.080188,-0.189652 3.114377,-3.113868 6.228722,-6.227681 9.343099,-9.341549 1.303318,1.274199 2.557633,2.615683 3.891235,3.848344 1.226743,0.852794 3.481089,0.276208 3.581177,-1.379244 -0.0026,-4.182178 -0.0053,-8.365709 -0.0078,-12.547038 -0.250297,-2.24955 -2.242884,-4.22404 -4.503601,-4.412134 z" transform="translate(-38.950929,-38.150313)" />
</svg>